<svg width="20" height="20" viewBox="0 0 20 20" fill="none" xmlns="http://www.w3.org/2000/svg">
<path d="M6.14651 0.5H13.8535C16.6713 0.5 19 2.82871 19 5.64651V14.3535C19 17.1713 16.6713 19.5 13.8535 19.5H6.14651C3.32871 19.5 1 17.1713 1 14.3535V5.64651C1 2.82871 3.32871 0.5 6.14651 0.5ZM6.14651 2.5C4.43478 2.5 3 3.93478 3 5.64651V14.3535C3 16.0652 4.43478 17.5 6.14651 17.5H13.8535C15.5652 17.5 17 16.0652 17 14.3535V5.64651C17 3.93478 15.5652 2.5 13.8535 2.5H6.14651ZM10 6.5C12.2091 6.5 14 8.29086 14 10.5C14 12.7091 12.2091 14.5 10 14.5C7.79086 14.5 6 12.7091 6 10.5C6 8.29086 7.79086 6.5 10 6.5ZM10 8.5C8.89543 8.5 8 9.39543 8 10.5C8 11.6046 8.89543 12.5 10 12.5C11.1046 12.5 12 11.6046 12 10.5C12 9.39543 11.1046 8.5 10 8.5ZM14.75 4.25C15.3023 4.25 15.75 4.69772 15.75 5.25C15.75 5.80228 15.3023 6.25 14.75 6.25C14.1977 6.25 13.75 5.80228 13.75 5.25C13.75 4.69772 14.1977 4.25 14.75 4.25Z" fill="white"/>
</svg>

