<svg width="16" height="16" viewBox="0 0 16 16" fill="none" xmlns="http://www.w3.org/2000/svg">
<path d="M8 0.5C3.875 0.5 0.5 3.875 0.5 8C0.5 11.0938 2.375 13.7187 5 14.8437C5 14.2812 4.99999 13.7188 5.09374 13.1562C5.28124 12.5 6.03124 9.03125 6.03124 9.03125C6.03124 9.03125 5.75001 8.5625 5.75001 7.8125C5.75001 6.6875 6.40625 5.84375 7.15625 5.84375C7.8125 5.84375 8.1875 6.3125 8.1875 6.96875C8.1875 7.625 7.71875 8.65625 7.53125 9.59375C7.34375 10.3438 7.90625 11 8.75 11C10.1563 11 11.0938 9.21875 11.0938 6.96875C11.0938 5.28125 9.96875 4.0625 8 4.0625C5.75 4.0625 4.34376 5.75 4.34376 7.625C4.34376 8.28125 4.53126 8.75 4.81251 9.125C4.90626 9.3125 5 9.3125 4.90625 9.5C4.90625 9.59375 4.8125 9.96875 4.71875 10.0625C4.625 10.25 4.53126 10.3438 4.34376 10.25C3.31251 9.78125 2.84375 8.65625 2.84375 7.34375C2.84375 5.1875 4.625 2.65625 8.1875 2.65625C11.0937 2.65625 12.9687 4.71875 12.9687 6.96875C12.9687 9.875 11.375 12.125 8.9375 12.125C8.09375 12.125 7.34375 11.6562 7.0625 11.1875C7.0625 11.1875 6.59374 12.875 6.49999 13.25C6.31249 13.8125 6.03126 14.375 5.75001 14.8437C6.40625 15.0312 7.15624 15.125 7.90624 15.125C12.0312 15.125 15.4062 11.75 15.4062 7.625C15.5 3.875 12.125 0.5 8 0.5Z" fill="currentColor"/>
</svg>
